<svg xmlns="http://www.w3.org/2000/svg" viewBox="0 0 512 512">
<style>
.i {
    fill: #b35215;
}
</style>
<path class="i" d="M306,423c0-27.61-22.39-50-50-50h0c-27.61,0-50,22.39-50,50v84.1c16.17,3.2,32.89,4.9,50,4.9s33.83-1.69,50-4.9v-84.1Z"/>
<path class="i" d="M35,312v-30h34v30h34v-135h34v30h34v-30h34v30h34v-30h11V60h12v10h64v44h-64v63h11v30h34v-30h34v30h34v-30h34v135h34v-30h34v103.26c22.24-37.94,35-82.1,35-129.26C512,114.62,397.38,0,256,0S0,114.62,0,256c0,47.15,12.76,91.32,35,129.26v-73.26Z"/>
<rect class="i" x="244" y="251.5" width="24" height="65"/>
<path class="i" d="M256,12c32.95,0,64.9,6.45,94.97,19.17,29.05,12.29,55.15,29.88,77.56,52.3,22.41,22.41,40.01,48.51,52.3,77.56,12.72,30.07,19.17,62.03,19.17,94.97s-6.45,64.9-19.17,94.97c-12.29,29.05-29.88,55.15-52.3,77.56-22.41,22.41-48.51,40.01-77.56,52.3-30.07,12.72-62.03,19.17-94.97,19.17s-64.9-6.45-94.97-19.17c-29.05-12.29-55.15-29.88-77.56-52.3-22.41-22.41-40.01-48.51-52.3-77.56-12.72-30.07-19.17-62.03-19.17-94.97s6.45-64.9,19.17-94.97c12.29-29.05,29.88-55.15,52.3-77.56,22.41-22.41,48.51-40.01,77.56-52.3,30.07-12.72,62.03-19.17,94.97-19.17M256,0C114.62,0,0,114.62,0,256s114.62,256,256,256,256-114.62,256-256S397.38,0,256,0h0Z"/>
</svg>